<svg xmlns="http://www.w3.org/2000/svg" version="1.1" xmlns:xlink="http://www.w3.org/1999/xlink" xmlns:svgjs="http://svgjs.com/svgjs" height="120" width="343.6700134277344"><defs id="SvgjsDefs1006"></defs><g id="SvgjsG1007" rel="mainfill" name="main_text" xmlns:name="main_text" transform="translate(134.95999999716878,-168.63999938964844)" fill="#476C5E"><path d="M12.50 213.78L15.08 213.95L22.60 215.74L23.55 215.77L24.10 215.66L24.47 215.49L24.57 215.36L24.51 215.09L24.28 214.80L23.96 214.57L22.90 214.03Q22.96 213.84 23.17 213.82L24.34 214.31L24.99 214.74L25.48 215.36L25.64 215.77L25.61 216.12L25.43 216.66L24.95 217.26L24.31 217.72L23.93 217.90L22.70 218.31Q22.55 218.42 22.53 218.66L22.45 234.99L22.58 236.49L22.80 237.36L22.99 237.72L23.27 238.00L23.62 238.17L24.31 238.35L24.31 237.93L25.75 237.93L25.78 243.78L25.71 243.84L24.31 243.81L24.28 240.99L24.13 240.48L23.88 240.20L23.55 239.99L23.09 239.90L2.34 239.90L1.93 240.04L1.68 240.34L1.52 240.72L1.52 243.81L0.07 243.84L0.04 237.93L3.02 237.77L4.32 237.43L5.49 236.95L7.08 235.84L7.63 235.30L8.21 234.23L8.49 233.41L8.85 227.77L8.79 219.91L7.70 219.62L6.94 219.30L6.63 219.07L6.35 218.79L6.12 218.45L5.97 218.07L5.92 217.56L6.00 217.08L6.12 216.67L6.56 216.01L7.11 215.49L8.14 214.85L10.12 214.12L12.50 213.78M7.35 216.70L6.97 216.96L6.69 217.31L6.60 217.85L6.73 218.34L7.01 218.72L7.76 219.20L8.72 219.51L8.79 219.43L8.69 218.45L8.41 217.49L8.17 217.11L7.80 216.86Q7.61 216.76 7.35 216.70M14.18 216.93L13.91 217.18L13.73 217.52L13.50 218.31L13.22 228.23L12.74 230.32L11.47 233.13L9.03 236.32L6.70 238.45L15.48 238.42L16.38 238.31L17.06 237.97L17.31 237.72L17.65 237.03L17.75 236.63L17.85 235.71L17.82 219.40L17.62 218.07Q17.51 217.91 17.31 217.87L14.18 216.93ZM41.91 213.44L45.18 214.01L47.61 215.04L49.40 216.23L50.97 217.66L52.49 219.59L53.49 221.57L54.28 224.65L54.36 227.51L53.83 230.87L52.72 233.60L51.49 235.38L49.51 237.25L46.83 238.88L43.94 239.84L40.52 240.28L37.26 240.09L36.53 239.97L34.56 239.37L32.06 238.01L29.77 236.03L27.65 232.99L26.66 230.11L26.53 229.38L26.35 226.58L26.64 223.86L27.35 221.55L28.75 219.10L30.62 217.14L32.90 215.53L35.53 214.31L38.65 213.57L41.91 213.44M40.49 215.47L39.29 215.55L37.73 215.90L36.02 216.70L35.29 217.24L34.09 218.57L32.37 221.92L31.74 224.44L31.64 228.04L32.14 230.71L33.20 233.43L34.43 235.38L35.63 236.68L36.36 237.22L37.16 237.68L39.12 238.25L41.52 238.29L43.55 237.82L45.17 236.92L46.41 235.65L47.84 233.24L48.80 230.43L49.17 226.47L48.78 223.61L48.37 222.12L47.61 220.35L46.12 218.03L45.21 217.07L44.09 216.28L43.21 215.90L42.22 215.63L40.49 215.47ZM55.48 213.74L66.41 213.74Q66.51 213.88 66.52 214.09L66.52 215.25L65.53 215.28L64.79 215.42L64.23 215.71L63.98 215.93L63.82 216.19L63.56 217.23L63.43 218.40L63.48 222.19L63.82 222.08L64.95 221.90L65.37 221.90L66.49 222.08L67.44 222.43L67.72 222.62L67.60 223.04L66.76 222.68L66.07 222.49L65.00 222.37L64.49 222.43L63.79 222.59L63.48 222.72L63.46 226.18L63.50 226.56L64.14 226.78L64.97 226.82L65.34 226.78L67.31 226.14L71.48 224.19L72.47 223.87L72.83 223.81L73.67 223.87L74.03 223.95L74.67 224.17L75.51 224.66L75.96 225.07L76.43 225.76L76.49 225.26L76.43 217.90L76.33 217.12L76.03 216.13L75.84 215.87L75.32 215.52L74.62 215.34L73.45 215.23L73.45 213.74L84.43 213.74L84.43 215.25L83.18 215.31L82.83 215.39L82.23 215.68L82.01 215.87L81.82 216.13L81.69 216.45L81.53 217.15L81.39 218.32L81.39 235.60L81.72 237.47L82.07 237.97L82.59 238.32L82.91 238.42L83.29 238.48L84.43 238.54L84.43 239.97L84.33 240L73.48 240L73.45 238.54L74.15 238.51L74.86 238.38L75.51 238.13L75.96 237.74L76.19 237.09L76.49 234.83L76.49 228.24L76.14 228.75L75.48 229.38L74.78 229.85L74.65 229.50L75.23 229.04L75.67 228.62L75.83 228.34L75.93 228.01L75.84 227.66L75.61 227.47L75.29 227.36L74.89 227.31L74.48 227.34L68.51 229.66L67.43 229.85L66.20 229.76L65.15 229.50L64.24 229.07L63.48 228.53L63.40 234.96L63.56 236.57L63.75 237.25L64.04 237.81L64.24 238.03L64.84 238.32L65.56 238.48L66.52 238.54L66.52 240L55.48 240L55.48 238.61L55.83 238.51L56.20 238.51L57.29 238.25L57.83 237.90L58.17 237.36L58.39 236.71L58.52 235.12L58.45 217.77L58.23 216.64L57.96 216.06L57.74 215.81L57.48 215.65L56.87 215.39L55.48 215.25L55.48 213.74ZM99.81 213.74L112.16 213.74L114.48 214.06L115.44 214.41L116.58 214.99L117.33 215.58L117.94 216.26L118.26 216.83L118.51 217.45L118.78 218.51L118.83 219.77L118.75 220.53L118.19 222.16L117.65 222.94L116.55 224.03L115.25 224.91L113.71 225.55L113.76 225.63L115.55 226.04L117.71 226.94L118.99 227.85L119.61 228.53L120.19 229.70L120.48 230.72L120.62 231.89L120.59 233.57L120.40 234.70L120.08 235.68L119.65 236.57L118.40 237.93L117.61 238.42L115.42 239.31L112.13 239.94L99.89 240Q99.79 239.85 99.79 239.65L99.81 238.54L100.79 238.48L101.17 238.39L101.82 238.19L102.30 237.81L102.59 237.22L102.82 236.13L102.91 234.93L102.82 217.65L102.59 216.58L102.30 216.00L102.08 215.80L101.79 215.63L101.17 215.39L99.79 215.25L99.79 214.13L99.81 213.74M107.82 215.65L107.82 225.14L108.45 225.14L110.16 224.91L111.63 224.37L112.54 223.84L113.03 223.36L113.44 222.78L113.74 222.08L113.93 221.29L114.00 220.38L113.93 218.99L113.84 218.59L113.57 217.87L113.38 217.55L112.96 216.99L112.11 216.38L111.47 216.03L110.73 215.80L109.89 215.65L107.82 215.65M107.82 226.96L107.82 234.99L107.92 236.16L108.16 237.12L108.37 237.49L108.70 237.78L109.09 237.97L110.11 238.13L110.73 238.13L111.79 238.00L112.67 237.71L113.44 237.31L113.79 237.03L114.38 236.45L114.64 236.10L115.25 234.93L115.39 234.48L115.58 233.47L115.61 232.90L115.39 230.75L115.09 229.85L114.67 229.07L114.41 228.75L113.79 228.18L113.03 227.73L111.76 227.23L109.15 226.88L107.82 226.96ZM151.92 215.34L150.72 215.50L150.11 215.68L149.55 215.98L149.17 216.41L149.04 216.70L148.84 217.71L148.78 219.27L148.91 236.38L149.07 237.02L149.36 237.58L149.74 238.00L150.27 238.29L150.91 238.45L151.92 238.54L151.92 239.94L151.86 240.01L150.85 239.94L143.20 240.01L143.20 238.88L143.24 238.54L145.24 238.06L145.45 237.87L145.64 237.63L145.86 237.05L146.06 236.01L146.38 219.01L128.18 240.10L127.98 240.29L126.36 240.29Q126.17 240.28 126.04 240.18L125.82 217.84L125.64 216.77L125.52 216.48L125.20 215.98L124.78 215.61L124.52 215.47L124.17 215.39L122.89 215.34L122.89 214.19L122.95 213.82L131.48 213.82L131.60 213.85L131.60 215.34L130.37 215.47L129.76 215.68L129.25 216.00L128.91 216.48L128.66 217.07L128.46 218.07L128.37 231.94L128.43 232.23L144.25 214.01L144.47 213.82L144.85 213.88L151.92 213.82L151.92 215.34ZM154.65 213.74L165.58 213.74Q165.68 213.88 165.69 214.09L165.69 215.25L164.70 215.28L163.96 215.42L163.40 215.71L163.15 215.93L162.99 216.19L162.73 217.23L162.60 218.40L162.66 222.19L162.99 222.08L164.12 221.90L164.54 221.90L165.67 222.08L166.62 222.43L166.89 222.62L166.78 223.04L165.93 222.68L165.24 222.49L164.18 222.37L163.66 222.43L162.96 222.59L162.66 222.72L162.63 226.18L162.67 226.56L163.31 226.78L164.15 226.82L164.51 226.78L166.48 226.14L170.65 224.19L171.64 223.87L172.01 223.81L172.84 223.87L173.20 223.95L173.85 224.17L174.68 224.66L175.13 225.07L175.60 225.76L175.66 225.26L175.60 217.90L175.50 217.12L175.20 216.13L175.01 215.87L174.49 215.52L173.79 215.34L172.62 215.23L172.62 213.74L183.60 213.74L183.60 215.25L182.35 215.31L182.00 215.39L181.40 215.68L181.18 215.87L180.99 216.13L180.86 216.45L180.70 217.15L180.57 218.32L180.57 235.60L180.89 237.47L181.24 237.97L181.76 238.32L182.08 238.42L182.46 238.48L183.60 238.54L183.60 239.97L183.50 240L172.65 240L172.62 238.54L173.32 238.51L174.04 238.38L174.68 238.13L175.13 237.74L175.37 237.09L175.66 234.83L175.66 228.24L175.31 228.75L174.65 229.38L173.95 229.85L173.82 229.50L174.40 229.04L174.84 228.62L175 228.34L175.10 228.01L175.01 227.66L174.78 227.47L174.46 227.36L174.07 227.31L173.66 227.34L167.68 229.66L166.60 229.85L165.37 229.76L164.32 229.50L163.42 229.07L162.66 228.53L162.57 234.96L162.73 236.57L162.92 237.25L163.21 237.81L163.42 238.03L164.02 238.32L164.73 238.48L165.69 238.54L165.69 240L154.65 240L154.65 238.61L155.00 238.51L155.37 238.51L156.46 238.25L157.00 237.90L157.34 237.36L157.56 236.71L157.69 235.12L157.62 217.77L157.40 216.64L157.13 216.06L156.92 215.81L156.65 215.65L156.04 215.39L154.65 215.25L154.65 213.74ZM186.95 213.74L188.00 213.74L188.42 213.84L188.76 214.03L189.15 214.16L191.40 214.44L202.54 214.44L204.42 214.17L204.81 214.07L205.53 213.76L206.79 213.74L208.71 220.32L207.20 220.35Q207.01 220.31 206.90 220.12L206.79 219.75L205.87 218.07L204.92 216.98L204.64 216.74L203.98 216.35L203.22 216.09L202.36 215.93L199.29 215.88L199.32 235.87L199.45 236.79L199.69 237.56L199.88 237.88L200.17 238.12L200.51 238.31L201.31 238.51L202.29 238.58L202.30 240L191.43 240L191.45 238.57L192.21 238.54L193.07 238.35L193.43 238.19L193.73 237.98L193.96 237.69L194.12 237.36L194.33 236.55L194.44 235.60L194.44 215.88L191.67 215.91L190.69 216.06L189.91 216.31L189.23 216.64L188.42 217.37L187.37 218.89L186.74 220.32L185.02 220.35L186.95 213.74Z" fill="#476C5E" style="fill: rgb(25, 20, 167);"></path></g><g id="SvgjsG1008" rel="mainfill" name="symbol" xmlns:name="symbol_mainfill" transform="translate(-15,-15) scale(1.5)" fill="#476C5E"><path d="M35,65.833c0-8.587,3.535-16.36,9.219-21.956c-3.063-1.406-6.458-2.21-10.052-2.21C20.82,41.667,10,52.487,10,65.833  C10,79.18,20.82,90,34.167,90c3.594,0,6.988-0.804,10.052-2.21C38.535,82.194,35,74.421,35,65.833z" fill="#476C5E" style="fill: rgb(25, 20, 167);"></path><path d="M65.833,65c-8.587,0-16.36-3.535-21.956-9.222c-1.406,3.066-2.21,6.461-2.21,10.055C41.667,79.18,52.487,90,65.833,90  C79.18,90,90,79.18,90,65.833c0-3.594-0.804-6.988-2.21-10.055C82.194,61.465,74.421,65,65.833,65z" fill="#476C5E" style="fill: rgb(25, 20, 167);"></path><path d="M65.833,10c-3.594,0-6.988,0.804-10.055,2.21C61.465,17.806,65,25.579,65,34.167c0,8.587-3.535,16.36-9.222,21.956  c3.066,1.406,6.461,2.21,10.055,2.21C79.18,58.333,90,47.513,90,34.167C90,20.82,79.18,10,65.833,10z" fill="#476C5E" style="fill: rgb(25, 20, 167);"></path><path d="M34.167,35c8.587,0,16.36,3.535,21.956,9.219c1.406-3.063,2.21-6.458,2.21-10.052C58.333,20.82,47.513,10,34.167,10  C20.82,10,10,20.82,10,34.167c0,3.594,0.804,6.988,2.21,10.052C17.806,38.535,25.579,35,34.167,35z" fill="#476C5E" style="fill: rgb(25, 20, 167);"></path></g></svg>